<?xml version="1.0" encoding="utf-8"?>
<!-- Generator: Adobe Illustrator 22.0.0, SVG Export Plug-In . SVG Version: 6.00 Build 0)  -->
<svg version="1.1" id="Layer_1" xmlns="http://www.w3.org/2000/svg" xmlns:xlink="http://www.w3.org/1999/xlink" x="0px" y="0px"
	 viewBox="0 0 300 300" style="enable-background:new 0 0 300 300;" xml:space="preserve">
<style type="text/css">
	.st0{fill:#670C00;}
	.st1{fill:#7C7C7C;}
	.st2{fill:#FFFFFF;}
</style>
<rect class="st0" width="300" height="300"/>
<g>
	<path class="st1" d="M113.8,172v-18.2c0-5.7-3.8-9.9-9.1-9.9c-5.3,0-9.1,4.1-9.1,9.9V172h-3.2v-18.6c0-7.3,5.2-12.7,12.3-12.7
		c7.2,0,12.3,5.3,12.3,12.7V172H113.8z"/>
	<path class="st2" d="M162.7,172.8c-5.5,0-9.1-2-12.3-6.9l-0.4-0.6l-0.4,0.6c-3.1,5-6.7,6.9-12.3,6.9c-7.9,0-13.4-5.4-13.4-13.2
		v-32.3h3.5v31.9c0,6,4.2,10.3,10.1,10.3c5.3,0,10.7-3.9,10.7-12.5v-29.8h3.5V157c0,8.6,5.4,12.5,10.7,12.5
		c5.9,0,10.1-4.3,10.1-10.3v-31.9h3.5v32.3C176,167.3,170.5,172.8,162.7,172.8z"/>
	<path class="st1" d="M204.4,172v-18.2c0-5.7-3.8-9.9-9.1-9.9s-9.1,4.1-9.1,9.9V172h-3.2v-18.6c0-7.3,5.2-12.7,12.3-12.7
		s12.3,5.3,12.3,12.7V172H204.4z"/>
</g>
</svg>
