<?xml version="1.0" encoding="utf-8"?>
<!-- Generator: Adobe Illustrator 22.0.0, SVG Export Plug-In . SVG Version: 6.00 Build 0)  -->
<svg version="1.1" id="Layer_1" xmlns="http://www.w3.org/2000/svg" xmlns:xlink="http://www.w3.org/1999/xlink" x="0px" y="0px"
	 viewBox="0 0 250 250" style="enable-background:new 0 0 250 250;" xml:space="preserve">
<style type="text/css">
	.st0{fill:none;stroke:#793236;stroke-width:3;}
	.st1{fill:none;stroke:#231F20;stroke-width:4;}
</style>
<line class="st0" x1="69.5" y1="111.5" x2="176.9" y2="111.5"/>
<line class="st0" x1="69.5" y1="98.5" x2="176.9" y2="98.5"/>
<line class="st0" x1="69.5" y1="85.5" x2="176.9" y2="85.5"/>
<line class="st0" x1="69.5" y1="125" x2="176.9" y2="125"/>
<line class="st0" x1="69.5" y1="138.6" x2="176.9" y2="138.6"/>
<line class="st0" x1="69.5" y1="152.2" x2="176.9" y2="152.2"/>
<line class="st0" x1="69.5" y1="165.2" x2="163.5" y2="165.2"/>
<line class="st0" x1="83.2" y1="72" x2="83.2" y2="177.2"/>
<line class="st0" x1="96.5" y1="72" x2="96.5" y2="177.2"/>
<line class="st0" x1="110.3" y1="72" x2="110.3" y2="177.2"/>
<line class="st0" x1="123.3" y1="72" x2="123.3" y2="177.2"/>
<line class="st0" x1="137" y1="72" x2="137" y2="177.2"/>
<line class="st0" x1="150.1" y1="72" x2="150.1" y2="177.2"/>
<line class="st0" x1="163.5" y1="72" x2="163.5" y2="165.2"/>
<line class="st1" x1="166.4" y1="178.8" x2="69.6" y2="178.8"/>
<line class="st1" x1="69.6" y1="180.5" x2="69.6" y2="71.2"/>
<line class="st1" x1="67.9" y1="71.2" x2="177" y2="71.2"/>
<line class="st1" x1="177" y1="69.5" x2="177" y2="168.7"/>
<line class="st1" x1="177" y1="151.6" x2="150" y2="178.8"/>
</svg>
