<?xml version="1.0" encoding="utf-8"?>
<!-- Generator: Adobe Illustrator 22.0.0, SVG Export Plug-In . SVG Version: 6.00 Build 0)  -->
<svg version="1.1" id="Layer_1" xmlns="http://www.w3.org/2000/svg" xmlns:xlink="http://www.w3.org/1999/xlink" x="0px" y="0px"
	 viewBox="0 0 250 250" style="enable-background:new 0 0 250 250;" xml:space="preserve">
<style type="text/css">
	.st0{fill:#FFFFFF;}
	.st1{fill:none;stroke:#793236;stroke-width:1.5;}
	.st2{fill:#231F20;}
</style>
<polyline class="st0" points="29.6,128.1 29.6,115.8 58.8,115.8 58.8,140.1 29.6,128.1 "/>
<polygon class="st1" points="29.6,128.1 29.6,115.8 58.8,115.8 58.8,140.1 "/>
<polyline class="st0" points="61.5,141.4 61.5,126.7 75.8,126.7 75.8,147.5 61.5,141.4 "/>
<polygon class="st1" points="61.5,141.4 61.5,126.7 75.8,126.7 75.8,147.5 "/>
<polyline class="st0" points="78.5,148.5 78.5,127 92.4,127 92.4,154.8 78.5,148.5 "/>
<polygon class="st1" points="78.5,148.5 78.5,127 92.4,127 92.4,154.8 "/>
<rect x="101" y="126.3" class="st0" width="14.4" height="19.3"/>
<rect x="101" y="126.3" class="st1" width="14.4" height="19.3"/>
<path class="st1" d="M101,145.6"/>
<path class="st0" d="M97.1,112.6"/>
<path class="st1" d="M97.1,112.6"/>
<polyline class="st0" points="118,126.3 118,145.6 132.5,145.6 132.5,126.3 118,126.3 "/>
<polygon class="st1" points="118,126.3 118,145.6 132.5,145.6 132.5,126.3 "/>
<polyline class="st0" points="103.5,158.7 115.2,158.7 115.2,164 103.5,158.7 "/>
<polygon class="st1" points="103.5,158.7 115.2,158.7 115.2,164 "/>
<polyline class="st0" points="118.3,165 118.3,158.7 132.4,158.7 132.4,170.7 118.3,165 "/>
<polygon class="st1" points="118.3,165 118.3,158.7 132.4,158.7 132.4,170.7 "/>
<rect x="157.9" y="126.9" class="st0" width="13.2" height="18.6"/>
<rect x="157.9" y="126.9" class="st1" width="13.2" height="18.6"/>
<path class="st1" d="M157.9,145.5"/>
<rect x="174" y="126.9" class="st0" width="13.2" height="18.5"/>
<rect x="174" y="126.9" class="st1" width="13.2" height="18.5"/>
<path class="st1" d="M174,145.3"/>
<polyline class="st0" points="198.6,146 190,146 190,126.7 205.5,126.7 205.5,116.1 211.8,116.1 200,163.1 189.8,163.1 189.8,158.9 
	198.6,158.9 198.6,146 "/>
<polygon class="st1" points="198.6,146 190,146 190,126.7 205.5,126.7 205.5,116.1 211.8,116.1 200,163.1 189.8,163.1 189.8,158.9 
	198.6,158.9 "/>
<rect x="141.3" y="127" class="st0" width="13.8" height="18.5"/>
<rect x="141.3" y="127" class="st1" width="13.8" height="18.5"/>
<rect x="141.3" y="158.9" class="st0" width="13.8" height="4.2"/>
<rect x="141.3" y="158.9" class="st1" width="13.8" height="4.2"/>
<path class="st1" d="M141.3,158.9"/>
<rect x="157.9" y="158.9" class="st0" width="13.2" height="4.2"/>
<rect x="157.9" y="158.9" class="st1" width="13.2" height="4.2"/>
<path class="st1" d="M157.9,158.9"/>
<rect x="173.9" y="158.9" class="st0" width="13.2" height="4.2"/>
<rect x="173.9" y="158.9" class="st1" width="13.2" height="4.2"/>
<path class="st1" d="M173.9,158.9"/>
<rect x="29" y="88.4" class="st2" width="64.1" height="16.9"/>
<rect x="100.4" y="88.4" class="st2" width="7.4" height="16.9"/>
<rect x="109" y="88.4" class="st2" width="24.2" height="16.9"/>
<rect x="140.6" y="93.9" class="st2" width="64.1" height="11.4"/>
<rect x="206.2" y="89" class="st2" width="6.5" height="16.3"/>
<rect x="140.6" y="88.4" class="st2" width="72" height="4.2"/>
<rect x="189.5" y="115.4" class="st2" width="14" height="9.3"/>
<rect x="173.3" y="115.4" class="st2" width="14.5" height="9.3"/>
<rect x="157.3" y="115.4" class="st2" width="14.5" height="9.3"/>
<rect x="117.4" y="115.4" class="st2" width="15.6" height="9.3"/>
<rect x="100.4" y="115.4" class="st2" width="15.7" height="9.3"/>
<rect x="77.8" y="115.4" class="st2" width="15.3" height="9.3"/>
<rect x="61" y="115.4" class="st2" width="15.3" height="9.3"/>
<rect x="140.6" y="115.4" class="st2" width="15.1" height="9.3"/>
<rect x="173.3" y="147.5" class="st2" width="14.5" height="9.3"/>
<rect x="157.3" y="147.5" class="st2" width="14.5" height="9.3"/>
<rect x="140.6" y="147.5" class="st2" width="15.1" height="9.3"/>
<rect x="117.6" y="147.5" class="st2" width="15.5" height="9.3"/>
<rect x="100.4" y="147.5" class="st2" width="15.5" height="9.3"/>
<rect x="189.1" y="147.5" class="st2" width="7.4" height="9.3"/>
</svg>
