<?xml version="1.0" encoding="utf-8"?>
<!-- Generator: Adobe Illustrator 22.0.0, SVG Export Plug-In . SVG Version: 6.00 Build 0)  -->
<svg version="1.1" id="Layer_1" xmlns="http://www.w3.org/2000/svg" xmlns:xlink="http://www.w3.org/1999/xlink" x="0px" y="0px"
	 viewBox="0 0 250 250" style="enable-background:new 0 0 250 250;" xml:space="preserve">
<style type="text/css">
	.st0{fill:#793236;}
	.st1{stroke:#000000;stroke-width:0.36;stroke-linecap:round;stroke-linejoin:round;stroke-miterlimit:10;}
</style>
<circle class="st0" cx="100.3" cy="128.5" r="30.1"/>
<path class="st0" d="M128.4,156.7c0,0,1-0.4,3.4-3.2c2.4-2.9,2.5-3.6,2.5-3.6l15.2,9.1c0,0-1.2,2.5-3.7,5.4
	c-2.4,2.8-4.6,4.7-4.6,4.7L128.4,156.7z"/>
<polygon points="88.5,186.9 87.4,186.7 86.2,186.4 85.1,186.1 83.9,185.8 82.8,185.4 81.6,185.1 80.5,184.7 79.4,184.3 78.3,183.8 
	77.1,183.4 76,182.9 74.9,182.4 73.9,181.9 72.8,181.4 71.8,180.8 67.9,188 69.1,188.6 70.3,189.2 71.5,189.8 72.7,190.4 74,190.9 
	75.2,191.4 76.5,191.9 77.8,192.4 79.1,192.8 80.4,193.2 81.6,193.6 83,194 84.3,194.3 85.6,194.6 86.9,194.9 88.3,195.2 
	89.7,187.1 "/>
<polygon points="47.5,68 36.8,55.7 35.4,57 33.9,58.3 32.6,59.6 31.2,61 29.9,62.4 28.6,63.8 27.4,65.3 26.1,66.7 24.9,68.2 
	23.7,69.7 22.6,71.3 21.5,72.8 20.4,74.4 19.4,76 18.4,77.6 17.4,79.3 40.2,92.6 40.9,91.5 41.7,90.3 42.4,89.1 43.2,88 44,86.9 
	44.8,85.7 45.7,84.6 46.6,83.6 47.5,82.5 48.4,81.5 49.3,80.4 50.3,79.4 51.2,78.4 52.2,77.5 53.3,76.5 54.3,75.6 "/>
<polygon points="70.8,117.7 70.6,117.2 70.5,117.5 "/>
<polygon points="70.6,117.2 70.8,117.7 70.9,117.3 "/>
<polygon points="55.7,120.3 55,120.2 55,120.6 "/>
<polygon points="55,120.6 55.6,120.7 55.7,120.3 "/>
<polygon points="64.1,121.7 63.5,121.6 63.4,122 "/>
<polygon points="63.4,122 64.1,122.1 64.1,121.7 "/>
<polygon points="68.5,109.7 67.9,109.4 67.7,109.6 "/>
<polygon points="67.7,109.6 68.3,110 68.5,109.7 "/>
<polygon points="100.4,90.4 100,90.4 100,91.1 "/>
<polygon points="100,91.1 100.4,91.1 100.4,90.4 "/>
<polygon points="57.7,112.7 57.1,112.5 57,112.8 "/>
<polygon points="57,112.8 57.6,113 57.7,112.7 "/>
<polygon points="65.8,115.5 65.2,115.3 65,115.6 "/>
<polygon points="65,115.6 65.7,115.9 65.8,115.5 "/>
<polygon points="69.5,122.6 69.2,122.6 69.1,122.9 "/>
<polygon points="69.1,122.9 69.4,123 69.5,122.6 "/>
<polygon points="93.8,91 93.5,91.1 93.6,91.7 "/>
<polygon points="93.6,91.7 93.9,91.7 93.8,91 "/>
<polygon points="55.1,128.6 54.4,128.3 54.4,128.6 "/>
<polygon points="54.4,128.3 55.1,128.6 55.1,128.2 "/>
<polygon points="73.2,112.3 72.9,112.2 72.7,112.5 "/>
<polygon points="72.7,112.5 73,112.7 73.2,112.3 "/>
<polygon points="61,105.5 60.4,105.1 60.3,105.4 "/>
<polygon points="60.3,105.4 60.9,105.8 61,105.5 "/>
<polygon points="150.6,145.5 150,145.3 149.9,145.6 "/>
<polygon points="149.9,145.6 150.5,145.8 150.6,145.5 "/>
<polygon points="100.4,96.5 100.1,96.2 100.1,96.5 "/>
<polygon points="100.1,96.2 100.4,96.5 100.4,96.2 "/>
<polygon points="153.6,127.7 152.9,127.3 152.9,127.7 "/>
<polygon points="152.9,127.3 153.6,127.7 153.6,127.3 "/>
<polygon points="101.2,180.2 100.8,180.2 100.8,180.9 "/>
<polygon points="100.8,180.9 101.2,180.9 101.2,180.2 "/>
<polygon points="119,176.9 118.7,177 118.9,177.6 "/>
<polygon points="118.9,177.6 119.3,177.5 119,176.9 "/>
<polygon points="134.8,168.3 134.6,167.6 134.4,167.8 "/>
<polygon points="134.6,167.6 134.8,168.3 135.1,168.1 "/>
<polygon points="156.9,147.7 156.3,147.5 156.2,147.8 "/>
<polygon points="156.2,147.8 156.8,148.1 156.9,147.7 "/>
<polygon points="142.7,76.5 142.2,77.1 142.5,77.3 "/>
<polygon points="142.5,77.3 143,76.7 142.7,76.5 "/>
<polygon points="89.5,98.1 89.2,98.2 89.3,98.6 "/>
<polygon points="89.3,98.6 89.7,98.4 89.5,98.1 "/>
<polygon points="111.3,98 111,97.9 110.9,98.2 "/>
<polygon points="110.9,98.2 111.2,98.4 111.3,98 "/>
<polygon points="113,93.2 112.9,92.5 112.7,93.1 "/>
<polygon points="112.9,92.5 113,93.2 113.2,92.6 "/>
<polygon points="139.1,149.6 138.6,149.3 138.4,149.6 "/>
<polygon points="138.4,149.6 139,149.9 139.1,149.6 "/>
<polygon points="142.3,142.6 141.7,142.4 141.6,142.7 "/>
<polygon points="141.6,142.7 142.2,142.9 142.3,142.6 "/>
<polygon points="144.2,135.1 143.5,135 143.5,135.3 "/>
<polygon points="143.5,135.3 144.2,135.4 144.2,135.1 "/>
<polygon points="144.8,127.7 144.1,127.4 144.1,127.8 "/>
<polygon points="144.1,127.4 144.8,127.7 144.8,127.4 "/>
<polygon points="146.8,154 146.2,153.6 146.1,153.9 "/>
<polygon points="146.1,153.9 146.7,154.3 146.8,154 "/>
<polygon points="152.9,136.6 152.2,136.5 152.2,136.8 "/>
<polygon points="152.2,136.8 152.8,136.9 152.9,136.6 "/>
<polygon points="92,180.2 91.8,179.5 91.6,180.2 "/>
<polygon points="91.8,179.5 92,180.2 92.1,179.6 "/>
<polygon points="110.3,179.4 109.9,179.4 110,180.1 "/>
<polygon points="110,180.1 110.4,180 110.3,179.4 "/>
<polygon points="127.3,173.7 127.2,172.9 126.9,173.1 "/>
<polygon points="127.2,172.9 127.3,173.7 127.6,173.5 "/>
<polygon points="152.6,157.2 152,156.9 151.9,157.2 "/>
<polygon points="151.9,157.2 152.4,157.5 152.6,157.2 "/>
<polygon points="159.5,137.7 158.8,137.5 158.7,137.9 "/>
<polygon points="158.7,137.9 159.4,138 159.5,137.7 "/>
<polygon points="160.3,127.6 159.6,127.3 159.6,127.6 "/>
<polygon points="159.6,127.3 160.3,127.6 160.3,127.3 "/>
<polygon points="162.9,104.8 162.1,104.8 162.2,105.1 "/>
<polygon points="162.1,104.8 162.9,104.8 162.8,104.5 "/>
<polygon points="157.9,94.4 157.2,94.4 157.3,94.7 "/>
<polygon points="157.2,94.4 157.9,94.4 157.7,94.1 "/>
<polygon points="151.2,84.9 150.5,85.1 150.7,85.3 "/>
<polygon points="150.5,85.1 151.2,84.9 151,84.6 "/>
<polygon points="94.9,96.7 94.5,96.7 94.6,97.1 "/>
<polygon points="94.6,97.1 94.9,97 94.9,96.7 "/>
<polygon points="133.1,70 132.8,70.6 133.1,70.8 "/>
<polygon points="133.1,70.8 133.4,70.2 133.1,70 "/>
<polygon points="109.7,73.8 109.5,73.1 109.4,73.7 "/>
<polygon points="109.5,73.1 109.7,73.8 109.9,73.1 "/>
<polygon points="81.2,75.8 80.9,75.9 81.1,76.6 "/>
<polygon points="81.1,76.6 81.4,76.5 81.2,75.8 "/>
<polygon points="72.4,80.7 72.4,80 72.1,80.1 "/>
<polygon points="72.4,80 72.4,80.7 72.8,80.6 "/>
<polygon points="64.7,86.3 64.5,85.6 64.2,85.8 "/>
<polygon points="64.5,85.6 64.7,86.3 64.9,86.1 "/>
<polygon points="100.2,72.3 99.9,72.3 99.9,73 "/>
<polygon points="99.9,73 100.2,73 100.2,72.3 "/>
<polygon points="90.5,73.2 90.2,73.3 90.3,74 "/>
<polygon points="90.3,74 90.7,73.9 90.5,73.2 "/>
<polygon points="125.7,83.1 125.2,84 125.5,84.1 "/>
<polygon points="125.5,84.1 126,83.2 125.7,83.1 "/>
<polygon points="133.2,88.1 132.5,88.9 132.8,89.1 "/>
<polygon points="132.8,89.1 133.4,88.3 133.2,88.1 "/>
<polygon points="139.8,94.6 138.8,95 139,95.3 "/>
<polygon points="138.8,95 139.8,94.6 139.6,94.4 "/>
<polygon points="148.8,110.1 147.8,110.1 147.9,110.4 "/>
<polygon points="147.8,110.1 148.8,110.1 148.7,109.8 "/>
<polygon points="145,102 143.9,102.2 144.1,102.5 "/>
<polygon points="143.9,102.2 145,102 144.8,101.7 "/>
<polygon points="95.5,159.1 95.2,159 95.1,159.4 "/>
<polygon points="95.1,159.4 95.5,159.4 95.5,159.1 "/>
<polygon points="94.5,165.1 94.3,164.4 94.2,165 "/>
<polygon points="94.3,164.4 94.5,165.1 94.6,164.4 "/>
<polygon points="101,159.5 100.7,159.5 100.7,159.8 "/>
<polygon points="100.7,159.8 101,159.8 101,159.5 "/>
<polygon points="101,164.9 100.7,164.9 100.7,165.6 "/>
<polygon points="100.7,165.6 101,165.6 101,164.9 "/>
<polygon points="106.4,158.9 106.1,159 106.2,159.3 "/>
<polygon points="106.2,159.3 106.5,159.3 106.4,158.9 "/>
<polygon points="107.4,164.3 107.1,164.3 107.2,165 "/>
<polygon points="107.2,165 107.6,164.9 107.4,164.3 "/>
<polygon points="111.7,157.4 111.4,157.5 111.5,157.9 "/>
<polygon points="111.5,157.9 111.8,157.7 111.7,157.4 "/>
<polygon points="113.7,162.5 113.3,162.6 113.6,163.3 "/>
<polygon points="113.6,163.3 113.9,163.1 113.7,162.5 "/>
<polygon points="116.7,155 116.4,155.2 116.6,155.5 "/>
<polygon points="116.6,155.5 116.8,155.3 116.7,155 "/>
<polygon points="119.5,160.5 119.4,159.7 119.1,159.9 "/>
<polygon points="119.4,159.7 119.5,160.5 119.8,160.3 "/>
<polygon points="124.8,156.7 124.7,156 124.4,156.2 "/>
<polygon points="124.7,156 124.8,156.7 125.1,156.5 "/>
<polygon points="121.1,151.8 120.9,152.1 121.1,152.3 "/>
<polygon points="121.1,152.3 121.4,152.1 121.1,151.8 "/>
<polygon points="129.7,151.8 129.1,151.3 128.9,151.6 "/>
<polygon points="128.9,151.6 129.5,152 129.7,151.8 "/>
<polygon points="125,148.3 124.9,147.9 124.7,148.1 "/>
<polygon points="124.9,147.9 125,148.3 125.2,148.1 "/>
<polygon points="133.4,146.3 132.8,146 132.6,146.3 "/>
<polygon points="132.6,146.3 133.2,146.7 133.4,146.3 "/>
<polygon points="128.2,143.8 128,143.3 127.9,143.6 "/>
<polygon points="128,143.3 128.2,143.8 128.3,143.5 "/>
<polygon points="136,140.4 135.4,140.1 135.3,140.5 "/>
<polygon points="135.3,140.5 135.9,140.7 136,140.4 "/>
<polygon points="130.5,138.8 130.3,138.3 130.2,138.7 "/>
<polygon points="130.3,138.3 130.5,138.8 130.6,138.4 "/>
<polygon points="137.6,134 137,133.9 136.9,134.2 "/>
<polygon points="136.9,134.2 137.6,134.4 137.6,134 "/>
<polygon points="131.9,133.4 131.6,133 131.6,133.4 "/>
<polygon points="131.6,133 131.9,133.4 132,133.1 "/>
<polygon points="132.4,127.9 132,127.5 132,127.9 "/>
<polygon points="132,127.5 132.4,127.9 132.4,127.5 "/>
<polygon points="138.1,127.8 137.4,127.5 137.4,127.8 "/>
<polygon points="137.4,127.5 138.1,127.8 138.1,127.5 "/>
<polygon points="135.8,115 135.1,114.9 135.2,115.2 "/>
<polygon points="135.1,114.9 135.8,115 135.7,114.6 "/>
<polygon points="130.4,117 130,116.8 130.1,117.1 "/>
<polygon points="130,116.8 130.4,117 130.3,116.7 "/>
<polygon points="133,109 132.2,109.1 132.4,109.4 "/>
<polygon points="132.2,109.1 133,109 132.8,108.8 "/>
<polygon points="128,112 127.6,111.9 127.8,112.1 "/>
<polygon points="127.6,111.9 128,112 127.9,111.7 "/>
<polygon points="129.2,103.7 128.5,103.9 128.7,104.1 "/>
<polygon points="128.5,103.9 129.2,103.7 129,103.4 "/>
<polygon points="124.8,107.4 124.4,107.4 124.6,107.7 "/>
<polygon points="124.4,107.4 124.8,107.4 124.6,107.2 "/>
<polygon points="124.3,98.9 123.9,99.4 124.1,99.6 "/>
<polygon points="124.1,99.6 124.6,99.1 124.3,98.9 "/>
<polygon points="120.9,103.5 120.6,103.3 120.4,103.6 "/>
<polygon points="120.4,103.6 120.7,103.8 120.9,103.5 "/>
<polygon points="118.9,95.2 118.6,95.8 118.9,95.9 "/>
<polygon points="118.9,95.9 119.2,95.3 118.9,95.2 "/>
<polygon points="116.4,100.4 116,100.2 115.9,100.5 "/>
<polygon points="115.9,100.5 116.2,100.7 116.4,100.4 "/>
<polygon points="106.8,91.6 106.6,90.9 106.4,91.5 "/>
<polygon points="106.6,90.9 106.8,91.6 106.9,90.9 "/>
<polygon points="106,96.6 105.6,96.6 105.6,96.9 "/>
<polygon points="105.6,96.9 105.9,97 106,96.6 "/>
<polygon points="87.5,92.7 87.2,92.8 87.4,93.5 "/>
<polygon points="87.4,93.5 87.7,93.4 87.5,92.7 "/>
<polygon points="63.6,128.5 62.9,128.2 62.9,128.5 "/>
<polygon points="62.9,128.2 63.6,128.5 63.6,128.2 "/>
<polygon points="81.6,96.3 81.6,95.5 81.3,95.7 "/>
<polygon points="81.6,95.5 81.6,96.3 81.9,96.1 "/>
<polygon points="84.7,100.8 84.2,100.7 84.4,101 "/>
<polygon points="84.2,100.7 84.7,100.8 84.5,100.5 "/>
<polygon points="80.2,104 79.7,103.9 79.9,104.2 "/>
<polygon points="79.7,103.9 80.2,104 80,103.7 "/>
<polygon points="76.4,100 76.2,99.3 76,99.5 "/>
<polygon points="76.2,99.3 76.4,100 76.7,99.8 "/>
<polygon points="131.9,122.3 131.5,122.1 131.5,122.4 "/>
<polygon points="131.5,122.1 131.9,122.3 131.8,122 "/>
<polygon points="137.5,121.3 136.8,121.1 136.9,121.4 "/>
<polygon points="136.8,121.1 137.5,121.3 137.5,121 "/>
<polygon points="76.1,108.1 76.1,107.6 75.9,107.9 "/>
<polygon points="76.1,107.6 76.1,108.1 76.3,107.8 "/>
<polygon points="72.1,104.4 71.6,104 71.4,104.2 "/>
<polygon points="71.4,104.2 71.9,104.6 72.1,104.4 "/>
<polygon points="88.2,163.5 88.1,162.7 87.9,163.4 "/>
<polygon points="88.1,162.7 88.2,163.5 88.4,162.9 "/>
<polygon points="90.2,157.7 89.9,157.6 89.8,157.9 "/>
<polygon points="89.8,157.9 90.1,158.1 90.2,157.7 "/>
<polygon points="85,155.8 84.9,155.3 84.7,155.6 "/>
<polygon points="84.9,155.3 85,155.8 85.2,155.5 "/>
<polygon points="82.2,160 81.9,160.6 82.2,160.8 "/>
<polygon points="82.2,160.8 82.5,160.2 82.2,160 "/>
<polygon points="78,167.5 77.7,168.1 78,168.3 "/>
<polygon points="78,168.3 78.3,167.7 78,167.5 "/>
<polygon points="80.6,152.4 80.4,152.2 80.2,152.5 "/>
<polygon points="80.2,152.5 80.4,152.7 80.6,152.4 "/>
<polygon points="76.9,156.4 76.5,156.9 76.8,157.1 "/>
<polygon points="76.8,157.1 77.2,156.6 76.9,156.4 "/>
<polygon points="71.5,163 71.1,163.5 71.3,163.7 "/>
<polygon points="71.3,163.7 71.8,163.2 71.5,163 "/>
<polygon points="76.7,148.6 76.2,148.6 76.4,148.8 "/>
<polygon points="76.2,148.6 76.7,148.6 76.5,148.3 "/>
<polygon points="72.6,152.1 71.8,152.3 72.1,152.5 "/>
<polygon points="71.8,152.3 72.6,152.1 72.4,151.9 "/>
<polygon points="66.1,157.7 65.4,157.9 65.6,158.1 "/>
<polygon points="65.4,157.9 66.1,157.7 65.9,157.4 "/>
<polygon points="73.5,144.1 73,144 73.2,144.3 "/>
<polygon points="73,144 73.5,144.1 73.3,143.8 "/>
<polygon points="68.8,146.9 68.1,146.9 68.2,147.2 "/>
<polygon points="68.1,146.9 68.8,146.9 68.7,146.6 "/>
<polygon points="61.4,151.3 60.7,151.3 60.9,151.6 "/>
<polygon points="60.7,151.3 61.4,151.3 61.3,150.9 "/>
<polygon points="71.1,139.2 70.7,139 70.8,139.3 "/>
<polygon points="70.7,139 71.1,139.2 71,138.9 "/>
<polygon points="66,141.1 65.3,141 65.4,141.3 "/>
<polygon points="65.3,141 66,141.1 65.9,140.8 "/>
<polygon points="58,144.1 57.2,144 57.4,144.3 "/>
<polygon points="57.2,144 58,144.1 57.9,143.8 "/>
<polygon points="69.6,133.9 69.2,133.6 69.3,134 "/>
<polygon points="69.2,133.6 69.6,133.9 69.5,133.6 "/>
<polygon points="64.3,134.9 63.5,134.7 63.6,135 "/>
<polygon points="63.5,134.7 64.3,134.9 64.2,134.6 "/>
<polygon points="55.9,136.5 55.1,136.3 55.2,136.6 "/>
<polygon points="55.1,136.3 55.9,136.5 55.8,136.1 "/>
<polygon points="69.1,128.5 68.7,128.1 68.7,128.5 "/>
<polygon points="68.7,128.1 69.1,128.5 69,128.1 "/>
<path class="st1" d="M63.3,85.8l0.6-0.5C76.7,74.4,93.4,69.7,110,72.5l0.7,0.1l2-10.7l1,0.2c22.7,4.5,41.7,20.6,49.8,42.4l0.4,1
	l63.3-22.6l0.4,1.2c4.4,12.7,6.8,25.8,7.3,39.2v1.3l-74,1.8v1.6c0,16.9-7.3,33.4-19.9,44.7l-0.6,0.5l-4.5-5.1l-0.5,0.5
	c-12.2,10.4-28.1,14.8-43.8,12.2l-0.7-0.1l-2.6,14.4l1,0.2l2.3-13.8l0.7,0.1c15.5,2.3,30.9-1.9,43-12l0.5-0.5l4.4,5.2l0.6-0.5
	c12.9-11.3,20.5-27.7,20.8-44.9v-1.6l74.7-0.7v-1.5c-0.3-14.8-3-29.5-8.1-43.5l-0.5-1.4L164.1,104l-0.3-0.8
	c-8.5-22-28.1-38-51.3-42.2l-0.7-0.1L110,71.6l-0.7-0.1C93,69.2,76.6,73.7,64.1,84.2l-0.6,0.5l-15-17.5L37,53.7l-0.8,0.7
	c-8,7-14.9,15.4-20.2,24.6l-0.5,0.9l43.7,24.7l-0.5,0.9c-12,22.5-4.3,50.2,17.6,63.3l0.9,0.5L67,187.4l0.9,0.5l10.3-18.8l-0.5-0.3
	c-22.4-12.5-30.6-41.1-18.1-63.5l0.5-1l-42.7-25l1-1.6c4.8-7.9,10.8-15.1,17.7-21.3l0.7-0.6L63.3,85.8"/>
<path class="st0" d="M115.3,64.7l-6.3,25l4.5,1.4l3.8,1.7L129.2,70c0,0-0.1-1-6.9-3.5S115.3,64.7,115.3,64.7"/>
<path class="st0" d="M138.1,116.1c0,0,0.6,1.7,1.1,4.9s0.4,4.5,0.4,4.5l91.9-4.3c0,0,0.5-5.7-1.6-16.6c-2.2-10.8-4.7-16.5-4.7-16.5
	L138.1,116.1z"/>
<path class="st0" d="M53.1,97.1c0,0,0.8-2.1,3.7-5.1c3-3.2,4.6-3.9,4.6-3.9l11.8,12c0,0-1.5,1.1-3.1,3.1s-2.4,3.4-2.4,3.4L53.1,97.1
	z"/>
<path class="st0" d="M76.8,178c0,0,1.9,1.7,5.1,2.8c3.5,1.3,6.1,1.4,6.1,1.4l3.3-15.1c0,0-0.8,0-4-1.3s-4.1-1.7-4.1-1.7L76.8,178z"
	/>
<g>
	<path d="M100.8,157"/>
</g>
<g>
	<path d="M101,180.2"/>
</g>
</svg>
