<?xml version="1.0" encoding="utf-8"?>
<!-- Generator: Adobe Illustrator 22.0.0, SVG Export Plug-In . SVG Version: 6.00 Build 0)  -->
<svg version="1.1" id="Layer_1" xmlns="http://www.w3.org/2000/svg" xmlns:xlink="http://www.w3.org/1999/xlink" x="0px" y="0px"
	 viewBox="0 0 250 250" style="enable-background:new 0 0 250 250;" xml:space="preserve">
<style type="text/css">
	.st0{fill:#231F20;}
	.st1{fill:none;stroke:#231F20;stroke-width:1.07;}
	.st2{fill:#FFFFFF;}
	.st3{fill:#793236;}
	.st4{fill:none;stroke:#793236;stroke-width:0.356;}
</style>
<path class="st0" d="M102.9,180.5l50.7,10.6l49.4-77.2l1.5,0.9l2.6-4c0,0-91.2-60.1-91.4-60.1s-1.3,0-1.3,0l-74.8,82L102.9,180.5"/>
<path class="st1" d="M102.9,180.5l50.7,10.6l49.4-77.2l1.5,0.9l2.6-4c0,0-91.2-60.1-91.4-60.1s-1.3,0-1.3,0l-74.8,82L102.9,180.5z"
	/>
<polyline class="st2" points="139.6,178.8 148.1,165.4 149.2,166.2 153,160.3 151.9,159.6 164.4,140.5 173.1,145.9 196.4,109.5 
	176.3,96.3 159.6,122.8 165.4,126.3 163.7,128.9 160.4,127.1 156.3,133.5 159.9,135.8 159.3,137 149.8,131.4 148.7,133.1 
	144.8,130.8 146.8,127.4 141.5,123.7 140.1,125.7 107.4,103.8 110.4,99.6 115,102.6 119,96.8 116.5,95.1 112.5,99.5 102,90.3 
	94.9,97.8 93,96.5 88.3,103 89,103.5 83.5,110 82.5,109.3 73.7,118.6 74.6,119.2 58.9,136.8 61.2,138.5 60.6,139.5 65.1,142.5 
	66,141.6 67.4,142.8 67.1,143.6 71.5,146.9 72.2,145.9 79.7,150.8 79,152.1 80.4,153.3 81.4,152 105.9,168.3 102.7,172.5 
	103.9,173.5 107.3,168.9 123.4,179.5 124,178.3 138,181.1 139.7,182.3 141.4,179.9 139.6,178.8 "/>
<polygon class="st1" points="139.6,178.8 148.1,165.4 149.2,166.2 153,160.3 151.9,159.6 164.4,140.5 173.1,145.9 196.4,109.5 
	176.3,96.3 159.6,122.8 165.4,126.3 163.7,128.9 160.4,127.1 156.3,133.5 159.9,135.8 159.3,137 149.8,131.4 148.7,133.1 
	144.8,130.8 146.8,127.4 141.5,123.7 140.1,125.7 107.4,103.8 110.4,99.6 115,102.6 119,96.8 116.5,95.1 112.5,99.5 102,90.3 
	94.9,97.8 93,96.5 88.3,103 89,103.5 83.5,110 82.5,109.3 73.7,118.6 74.6,119.2 58.9,136.8 61.2,138.5 60.6,139.5 65.1,142.5 
	66,141.6 67.4,142.8 67.1,143.6 71.5,146.9 72.2,145.9 79.7,150.8 79,152.1 80.4,153.3 81.4,152 105.9,168.3 102.7,172.5 
	103.9,173.5 107.3,168.9 123.4,179.5 124,178.3 138,181.1 139.7,182.3 141.4,179.9 "/>
<polyline class="st3" points="102.5,117.2 108.5,121.1 113.9,112.9 107.9,108.9 102.5,117.2 "/>
<polyline class="st3" points="114.6,118.2 117.5,120.1 120,116.2 117.2,114.3 114.6,118.2 "/>
<polyline class="st3" points="115,126.2 118,128 121.4,122.6 118.4,120.7 115,126.2 "/>
<polyline class="st3" points="119.6,129.1 124.5,132.2 127.9,126.7 123,123.7 119.6,129.1 "/>
<polyline class="st3" points="127.2,134 130.2,135.8 133.6,130.4 130.6,128.5 127.2,134 "/>
<polyline class="st3" points="146.6,137 149.6,138.9 153.1,133.3 150.1,131.4 146.6,137 "/>
<polyline class="st3" points="151.5,139.9 153.4,141 156.9,135.4 155,134.3 151.5,139.9 "/>
<polyline class="st3" points="78.6,118.7 83.6,123 86.9,119.1 81.9,114.8 78.6,118.7 "/>
<polyline class="st3" points="67.8,127.1 72.8,131.5 75.1,128.9 70.1,124.5 67.8,127.1 "/>
<polyline class="st3" points="150.2,144.9 155.9,148.5 157.1,146.5 151.5,143 150.2,144.9 "/>
<polyline class="st3" points="146.6,155.6 152.2,159.2 153.3,157.5 147.6,153.9 146.6,155.6 "/>
<polyline class="st3" points="139.2,167.2 144.8,170.7 145.7,169.3 140.1,165.8 139.2,167.2 "/>
<polyline class="st3" points="130.7,169.8 128.4,179.1 130,179.5 132.3,170.2 130.7,169.8 "/>
<polyline class="st3" points="134.1,170.7 131.8,180 133.4,180.5 135.8,171.1 134.1,170.7 "/>
<polyline class="st3" points="124.8,173.5 123.6,178.2 126.3,178.8 127.4,174.1 124.8,173.5 "/>
<polyline class="st3" points="116,166.2 112.1,172 115.5,174.3 119.4,168.5 116,166.2 "/>
<polyline class="st3" points="111.2,163.1 107.3,168.9 109.1,170.1 113,164.3 111.2,163.1 "/>
<polyline class="st3" points="102.7,158.1 99.1,163.5 100.7,164.6 104.3,159.2 102.7,158.1 "/>
<polyline class="st3" points="97.1,152.5 92.6,159.1 95.8,161.4 100.4,154.7 97.1,152.5 "/>
<polyline class="st3" points="89.1,150 85.9,154.8 88.7,156.7 92,151.9 89.1,150 "/>
<polyline class="st3" points="81.8,144.4 78.2,149.7 79.8,150.8 83.4,145.4 81.8,144.4 "/>
<polyline class="st3" points="69.7,136.3 66,141.8 67.6,142.8 71.3,137.3 69.7,136.3 "/>
<polyline class="st3" points="70.8,140.6 68.2,144.5 70.3,145.9 72.9,142 70.8,140.6 "/>
<polyline class="st3" points="146.8,150.2 152.4,153.7 154.2,150.8 148.6,147.3 146.8,150.2 "/>
<path class="st1" d="M80.2,132.6l-4.6-5l1.7-1.8l7.1,6.8l2.8-3.1l-5.9-5.1l0.9-1.4l6.9,6.2l5.2-5.5l-7.7-6.7l1.8-2.2l7.5,5.5
	l2.9-3.8l-5.9-5.6l1-1.1l8.2,6.3l-5,7.6l8,5.5l6.1-9.1l4.7,2.7l-3.5,5.9l4.4,2.9l-1.7,2.8l6.4,4.2l4.4-7.3l1.4,1.1l-4.5,8l4.2,2.5
	l4.9-8.2l4.6,2.9l-2.2,3.7l3.3,2.5l5.5-7.6l6.8,4.6l-8.3,13.1l5.1,3.3l-1.3,1.9l-8.8-5.7l-2.5,4l9.2,6.1l-1.1,1.9l-2.2-1.4l-2.5,2.8
	l2.3,2l-3.5,4.8l0.9-5l-7.9-2.1l-0.9,4.1l-3.5-0.6l-0.4,1.4l-1.4-0.4l-2.8-2l4.5-7.1l-4.5-2.8l-4.9,6.6l-2-1l2.1-3.5l-2.2-1.9
	l5.7-8.9l-3.3-2.8c0,0-8.5,13-8.7,13c-0.2,0-2-1.3-2-1.3l2.3-3.6l-2.7-1.9l-2.3,3.4l-2-1.2l5.3-8.8l-4-3.2l-6,9l-2.7-1.7l3.7-5.6
	l-3.5-2.4l-3.9,5.4l-1.2-0.6l5.4-8.6l-2.9-1.9l-5.8,8.5l-0.7-0.4l0.8-2l-2.5-1.6l-1.7,2.2l-5.7-3.5L80.2,132.6z"/>
<path class="st4" d="M69.2,139.4l-3.6-2.3l-0.2-0.2l0.2-0.2L77,123.9l0.2-0.2l0.2,0.2c2.3,2.1,4.5,4.3,6.8,6.4
	c0.3-0.3,0.5-0.6,0.8-1c-2.3-2-4.7-4.1-7-6.1l-0.2-0.2l0.2-0.2l10.1-11.1l0.2-0.2l0.2,0.2c2.2,1.9,4.3,3.9,6.5,5.8l0.7-0.7l-6.6-5.8
	l0.2-0.2l7.1-8.3l0.1-0.2l0.2,0.1l8.4,5.2l0.2,0.1l-0.1,0.2c-0.6,1.1-1.2,2.3-1.9,3.5c5.7,3.7,11.5,7.4,17.2,11l0.2,0.1l-0.1,0.2
	c-0.2,0.5-0.5,1-0.7,1.5c4.8,3,9.7,5.9,14.5,8.9l3.9-5.3l0.1-0.2l0.2,0.1l3.8,2.6l0.2,0.1l-0.1,0.2c-2.1,3.3-4.2,6.6-6.3,9.8
	l0.7,0.7c2.2-3.2,4.5-6.4,6.7-9.6l0.1-0.2l0.2,0.1l13.2,9l0.2,0.1l-0.1,0.2c-2.9,4.9-5.7,9.8-8.6,14.7c0.3,0.3,0.5,0.6,0.8,0.9
	l0.1,0.1l-0.1,0.2l-3.6,4.8l-0.1,0.2l-0.2-0.1c-2.9-1.8-5.8-3.5-8.7-5.3c-0.1,0.2-0.2,0.4-0.4,0.5c2.9,1.9,5.7,3.7,8.6,5.6l0.2,0.1
	l-0.1,0.2l-8.2,13l-0.1,0.1l-15.1-3.1l-13.9-9.4l0.1-0.2c2.5-3.5,4.9-6.9,7.4-10.4c-0.3-0.1-0.6-0.2-0.9-0.3
	c-2.4,3.4-4.8,6.9-7.2,10.3l-0.1,0.2l-0.2-0.1c-1.4-1-2.8-1.9-4.1-2.9l-0.4,1l-0.1,0.3l-0.3-0.2l-16.3-12l-0.2-0.1l0.1-0.2
	c1.7-2.6,3.4-5.1,5.2-7.7l-0.5-0.2c-1.8,2.3-3.5,4.6-5.3,6.8l-0.1,0.2l-0.2-0.1c-0.9-0.5-1.7-0.9-2.6-1.4l-1.2,0.9l-0.1,0.1
	l-0.1-0.1l-8.6-5.8l-0.2-0.1l0.1-0.2c1.8-2.6,3.6-5.2,5.4-7.9c-0.3-0.3-0.6-0.5-1-0.8c-1.6,2.7-3.2,5.4-4.8,8.2l-0.1,0.2l-0.2-0.1
	C70.6,140.3,69.9,139.8,69.2,139.4z"/>
<path class="st4" d="M69.4,139c-1.1-0.7-2.3-1.4-3.4-2.1c3.7-4.1,7.5-8.3,11.2-12.4c2.3,2.1,4.5,4.3,6.8,6.4l0.2,0.2l0.2-0.2
	l1.1-1.4l0.2-0.2l-0.2-0.2c-2.3-2-4.7-4.1-7-6.1c3.3-3.6,6.5-7.1,9.8-10.7c2.2,1.9,4.3,3.9,6.5,5.8l0.2,0.2l0.2-0.2l1-1l0.2-0.2
	l-0.2-0.2c-2.1-1.9-4.3-3.8-6.4-5.7c2.3-2.7,4.5-5.3,6.8-8c2.7,1.7,5.4,3.3,8.1,5c-0.6,1.1-1.2,2.3-1.9,3.4l-0.1,0.2l0.2,0.1
	c5.7,3.7,11.5,7.4,17.2,11c-0.2,0.5-0.5,1-0.7,1.5l-0.1,0.2l0.2,0.1l14.9,9.1l0.2,0.1l0.1-0.2c1.3-1.8,2.6-3.5,3.9-5.3
	c1.1,0.8,2.2,1.5,3.4,2.3c-2.1,3.3-4.2,6.5-6.2,9.8l-0.1,0.2l0.1,0.1l1,1l0.2,0.2l0.2-0.2c2.2-3.2,4.5-6.5,6.7-9.7
	c4.3,2.9,8.5,5.8,12.8,8.7c-2.9,4.9-5.7,9.7-8.6,14.6l-0.1,0.2l0.1,0.1c0.3,0.3,0.5,0.6,0.8,0.9c-1.1,1.5-2.2,3-3.3,4.5
	c-2.9-1.8-5.8-3.5-8.7-5.3l-0.2-0.1l-0.1,0.2l-0.6,0.9l-0.1,0.2l0.2,0.1c2.9,1.9,5.7,3.7,8.6,5.6c-2.7,4.2-5.3,8.4-8,12.6
	c-4.9-1-9.8-2-14.8-3c-4.4-3-8.8-6-13.3-9c2.5-3.5,4.9-7,7.4-10.4l0.2-0.3l-0.3-0.1l-1.4-0.5l-0.2-0.1l-0.1,0.2
	c-2.4,3.4-4.8,6.8-7.2,10.2c-1.4-1-2.8-1.9-4.2-2.9l-0.2-0.2l-0.1,0.3l-0.4,1c-5.3-3.9-10.6-7.8-15.9-11.7c1.7-2.6,3.5-5.2,5.2-7.7
	l0.2-0.3l-1.2-0.4l-0.2-0.1l-0.1,0.1c-1.8,2.3-3.5,4.6-5.3,6.8c-0.8-0.4-1.7-0.9-2.5-1.3l-0.1-0.1L82,146c-0.4,0.3-0.8,0.6-1.2,0.9
	c-2.7-1.9-5.5-3.7-8.2-5.6c1.8-2.6,3.6-5.2,5.4-7.8l0.1-0.2l-0.2-0.1l-1.4-1.1l-0.2-0.2l-0.1,0.2c-1.6,2.7-3.2,5.5-4.8,8.2
	C70.7,139.8,70.1,139.4,69.4,139L69.4,139L69.4,139z"/>
<polyline class="st2" points="134.2,115.8 148,94.8 146.6,93.9 148.5,91.6 135,82.8 133.6,85 133.6,85.8 123.8,101 123.5,100.2 
	119.6,105.5 134.2,115.8 "/>
<polygon class="st1" points="134.2,115.8 148,94.8 146.6,93.9 148.5,91.6 135,82.8 133.6,85 133.6,85.8 123.8,101 123.5,100.2 
	119.6,105.5 "/>
<polyline class="st2" points="152.5,86.2 155,82.3 139.8,72.4 137.2,76.2 152.5,86.2 "/>
<polygon class="st1" points="152.5,86.2 155,82.3 139.8,72.4 137.2,76.2 "/>
<polyline class="st2" points="155,120.1 159.9,113 149.4,106.2 144.9,113.1 155,120.1 "/>
<polygon class="st1" points="155,120.1 159.9,113 149.4,106.2 144.9,113.1 "/>
<polyline class="st2" points="167.1,103.8 170.6,98.4 168.2,96.4 163.8,102.2 166.7,104 167.1,103.8 "/>
<polygon class="st1" points="167.1,103.8 170.6,98.4 168.2,96.4 163.8,102.2 166.7,104 "/>
<polyline class="st2" points="172.8,94.7 174.2,92.9 170.8,91.1 169.8,92.8 172.8,94.7 "/>
<polygon class="st1" points="172.8,94.7 174.2,92.9 170.8,91.1 169.8,92.8 "/>
<polyline class="st2" points="158.7,90.6 160.4,87.9 159.6,87.1 157.6,89.5 158.7,90.6 "/>
<polygon class="st1" points="158.7,90.6 160.4,87.9 159.6,87.1 157.6,89.5 "/>
<path class="st2" d="M127.2,77.5c0.4,0,6.2-6.5,6.2-6.5l-4.6-2.9l-5.8,6.3L127.2,77.5"/>
<path class="st1" d="M127.2,77.5c0.4,0,6.2-6.5,6.2-6.5l-4.6-2.9l-5.8,6.3L127.2,77.5z"/>
<polyline class="st2" points="118.2,69.1 122.9,64.1 115.8,59.5 112,63.8 118.2,69.1 "/>
<polygon class="st1" points="118.2,69.1 122.9,64.1 115.8,59.5 112,63.8 "/>
<polyline class="st2" points="103.7,80.6 110.7,72.7 114.2,75.5 115.5,74.3 106.9,67.3 98.7,76 103.7,80.6 "/>
<polygon class="st1" points="103.7,80.6 110.7,72.7 114.2,75.5 115.5,74.3 106.9,67.3 98.7,76 "/>
<path class="st2" d="M96,90.1c0.3-0.4,5.9-6.4,5.9-6.4l-5.5-5.2l-5.8,6.6L96,90.1"/>
<path class="st1" d="M96,90.1c0.3-0.4,5.9-6.4,5.9-6.4l-5.5-5.2l-5.8,6.6L96,90.1z"/>
<polyline class="st2" points="81,98.1 85.9,91.5 84.7,90.6 79,96.7 81,98.1 "/>
<polygon class="st1" points="81,98.1 85.9,91.5 84.7,90.6 79,96.7 "/>
<polyline class="st2" points="55.3,134.2 58.6,130 52.9,126 49.5,129.8 55.3,134.2 "/>
<polygon class="st1" points="55.3,134.2 58.6,130 52.9,126 49.5,129.8 "/>
<polyline class="st2" points="52.7,139.1 54.3,136.8 45.3,130.3 43.5,132.4 52.7,139.1 "/>
<polygon class="st1" points="52.7,139.1 54.3,136.8 45.3,130.3 43.5,132.4 "/>
<polyline class="st2" points="175.8,148 177.4,145.5 176,144.6 174.2,146.9 175.8,148 "/>
<polygon class="st1" points="175.8,148 177.4,145.5 176,144.6 174.2,146.9 "/>
<polyline class="st2" points="181.1,140.4 182.3,138.7 180.4,137.6 179.2,139.3 181.1,140.4 "/>
<polygon class="st1" points="181.1,140.4 182.3,138.7 180.4,137.6 179.2,139.3 "/>
<polyline class="st2" points="185,134.4 186.1,132.7 184.3,131.5 183.1,133.3 185,134.4 "/>
<polygon class="st1" points="185,134.4 186.1,132.7 184.3,131.5 183.1,133.3 "/>
<polyline class="st2" points="188.8,128.3 189.9,126.6 188.1,125.3 187,127.2 188.8,128.3 "/>
<polygon class="st1" points="188.8,128.3 189.9,126.6 188.1,125.3 187,127.2 "/>
<polyline class="st2" points="192.4,122.2 193.6,120.5 191.7,119.2 190.6,121 192.4,122.2 "/>
<polygon class="st1" points="192.4,122.2 193.6,120.5 191.7,119.2 190.6,121 "/>
<polyline class="st2" points="197.5,115.5 199.1,113.1 196.5,111.2 195,113.8 197.5,115.5 "/>
<polygon class="st1" points="197.5,115.5 199.1,113.1 196.5,111.2 195,113.8 "/>
<polyline class="st2" points="143.9,184.4 145.5,182.1 142.5,180.3 141,182.5 143.9,184.4 "/>
<polygon class="st1" points="143.9,184.4 145.5,182.1 142.5,180.3 141,182.5 "/>
<polyline class="st2" points="127.6,183.5 130.4,184.1 131.1,182 128.4,181.2 127.6,183.5 "/>
<polygon class="st1" points="127.6,183.5 130.4,184.1 131.1,182 128.4,181.2 "/>
</svg>
