<?xml version="1.0" encoding="utf-8"?>
<!-- Generator: Adobe Illustrator 22.0.0, SVG Export Plug-In . SVG Version: 6.00 Build 0)  -->
<svg version="1.1" id="Layer_1" xmlns="http://www.w3.org/2000/svg" xmlns:xlink="http://www.w3.org/1999/xlink" x="0px" y="0px"
	 viewBox="0 0 250 250" style="enable-background:new 0 0 250 250;" xml:space="preserve">
<style type="text/css">
	.st0{fill:none;stroke:#929497;}
	.st1{fill:none;stroke:#929497;stroke-dasharray:3.2751,2.2751;}
	.st2{fill:none;stroke:#929497;stroke-dasharray:2.9839,1.9839;}
	.st3{fill:none;stroke:#929497;stroke-dasharray:3.404,2.404;}
	.st4{fill:none;stroke:#929497;stroke-dasharray:2.5518,1.5518;}
	.st5{fill:none;stroke:#929497;stroke-dasharray:2.8854,1.8854;}
	.st6{fill:none;stroke:#929497;stroke-dasharray:3.0365,2.0365;}
	.st7{fill:none;stroke:#929497;stroke-dasharray:2.8275,1.8275;}
	.st8{fill:none;stroke:#929497;stroke-dasharray:3.1237,2.1237;}
	.st9{fill:none;stroke:#929497;stroke-dasharray:3.293,2.293;}
	.st10{fill:none;stroke:#231F20;}
	.st11{fill:none;stroke:#231F20;stroke-width:2;}
	.st12{fill:none;stroke:#231F20;stroke-width:2.5;}
	.st13{fill:none;stroke:#231F20;stroke-width:3;}
	.st14{fill:none;stroke:#231F20;stroke-width:4;}
	.st15{fill:none;stroke:#793236;stroke-width:1.5;}
</style>
<polyline class="st0" points="45,102.3 51.9,91.1 80.1,65.7 97.5,69.3 "/>
<polyline class="st0" points="70.1,102.4 78.6,85.2 104.1,63.9 "/>
<line class="st0" x1="87.6" y1="102.5" x2="104.2" y2="92.9"/>
<polyline class="st0" points="131.9,55.4 168.9,75.2 155.6,102.2 "/>
<polyline class="st0" points="210.9,78.4 189.5,62.8 168.9,75.4 "/>
<line class="st1" x1="95" y1="73.7" x2="101.8" y2="73"/>
<line class="st2" x1="105.7" y1="71.5" x2="110.7" y2="68.1"/>
<line class="st3" x1="114.9" y1="66.5" x2="121.9" y2="65"/>
<line class="st4" x1="128.6" y1="64.1" x2="130.6" y2="65.1"/>
<line class="st5" x1="134.1" y1="66.3" x2="136.6" y2="67"/>
<line class="st6" x1="140.6" y1="67.3" x2="150.3" y2="66.8"/>
<line class="st0" x1="92.3" y1="73.9" x2="93.5" y2="73.8"/>
<polyline class="st0" points="102.6,73 103.7,72.9 104.6,72.3 "/>
<polyline class="st0" points="111.3,67.7 112.2,67.1 113.3,66.9 "/>
<polyline class="st0" points="122.7,64.8 123.8,64.5 124.7,64.2 "/>
<polyline class="st0" points="125.9,63.6 126.8,63.3 127.6,63.6 "/>
<polyline class="st0" points="131.1,65.3 131.9,65.7 132.8,66 "/>
<polyline class="st0" points="137.2,67.2 138.2,67.4 139.2,67.4 "/>
<line class="st0" x1="151" y1="66.8" x2="152.1" y2="66.7"/>
<path class="st7" d="M175.9,73.3c2.2,1.3,5.8,3.4,7.7,4.5"/>
<path class="st8" d="M187.6,78.4c2.9-0.1,7.5-0.3,10.1-0.4"/>
<line class="st9" x1="202" y1="77.1" x2="204.8" y2="76"/>
<path class="st0" d="M174,72.2c0,0,0.3,0.2,0.8,0.5"/>
<path class="st0" d="M184.2,78.1c0.5,0.3,0.8,0.4,0.9,0.4c0.1,0,0.5,0,1.1,0"/>
<path class="st0" d="M198.4,78c0.7,0,1.1,0,1.1,0l1.1-0.4"/>
<line class="st0" x1="205.6" y1="75.8" x2="206.6" y2="75.4"/>
<polyline class="st10" points="34.1,102.5 102.2,102.5 102.2,186.2 133.4,186.2 133.4,102.5 211.1,102.5 "/>
<line class="st11" x1="34.1" y1="186.2" x2="211.4" y2="186.2"/>
<line class="st11" x1="110.1" y1="185.5" x2="110.1" y2="102.1"/>
<line class="st11" x1="104.2" y1="155.1" x2="104.2" y2="134.9"/>
<line class="st11" x1="115.3" y1="185.5" x2="115.3" y2="102.1"/>
<line class="st11" x1="120.6" y1="185.5" x2="120.6" y2="102.1"/>
<line class="st11" x1="126.1" y1="185.5" x2="126.1" y2="102.1"/>
<line class="st11" x1="131.8" y1="185.3" x2="131.8" y2="140.4"/>
<line class="st12" x1="104.3" y1="135.7" x2="126.3" y2="135.7"/>
<line class="st12" x1="109.4" y1="130.1" x2="126.7" y2="130.1"/>
<line class="st12" x1="109.4" y1="124.5" x2="126.7" y2="124.5"/>
<line class="st12" x1="109.4" y1="118.9" x2="126.7" y2="118.9"/>
<line class="st12" x1="109.4" y1="113.3" x2="126.7" y2="113.3"/>
<line class="st12" x1="109.4" y1="108.1" x2="126.7" y2="108.1"/>
<line class="st13" x1="104.3" y1="141.3" x2="132.5" y2="141.3"/>
<line class="st13" x1="104.3" y1="146.9" x2="131.4" y2="146.9"/>
<line class="st13" x1="103.9" y1="154.1" x2="131.4" y2="154.1"/>
<line class="st14" x1="110.4" y1="160.7" x2="131.4" y2="160.7"/>
<line class="st14" x1="110.4" y1="169.4" x2="131.4" y2="169.4"/>
<polyline class="st15" points="104,135.1 104,63.9 113.4,56.3 129.1,53.6 132,55.5 132,140.7 "/>
<polyline class="st15" points="103.9,93.1 121.9,78.7 129.2,53.7 "/>
<line class="st15" x1="117.9" y1="102.7" x2="121.9" y2="78.6"/>
<line class="st15" x1="113.5" y1="56.4" x2="125.8" y2="65.3"/>
<line class="st12" x1="109.7" y1="103" x2="126.6" y2="103"/>
</svg>
