<?xml version="1.0" encoding="utf-8"?>
<!-- Generator: Adobe Illustrator 22.0.0, SVG Export Plug-In . SVG Version: 6.00 Build 0)  -->
<svg version="1.1" id="Layer_1" xmlns="http://www.w3.org/2000/svg" xmlns:xlink="http://www.w3.org/1999/xlink" x="0px" y="0px"
	 viewBox="0 0 250 250" style="enable-background:new 0 0 250 250;" xml:space="preserve">
<style type="text/css">
	.st0{fill:#793236;}
	.st1{fill:none;stroke:#231F20;stroke-width:1.5;}
	.st2{fill:none;stroke:#793236;stroke-width:2;}
	.st3{fill:none;stroke:#793236;stroke-width:3;}
	.st4{fill:#FFFFFF;}
	.st5{fill:none;stroke:#793236;}
	.st6{fill:none;stroke:#231F20;}
</style>
<polyline class="st0" points="61.3,146.1 61.3,64.8 123.1,93.3 123.1,129.3 61.3,146.1 "/>
<polygon class="st1" points="61.3,146.1 61.3,64.8 123.1,93.3 123.1,129.3 "/>
<path class="st0" d="M107.8,164.5c2.8,0,5.1-2.3,5.1-5.1c0-2.8-2.3-5.1-5.1-5.1c-2.8,0-5.1,2.3-5.1,5.1
	C102.6,162.2,104.9,164.5,107.8,164.5"/>
<ellipse transform="matrix(0.3827 -0.9239 0.9239 0.3827 -80.7064 197.9263)" class="st2" cx="107.8" cy="159.4" rx="5.1" ry="5.1"/>
<path class="st0" d="M168.9,156.6c5.4,0,9.7-4.4,9.7-9.7c0-5.4-4.4-9.7-9.7-9.7c-5.4,0-9.7,4.4-9.7,9.7
	C159.1,152.2,163.5,156.6,168.9,156.6"/>
<path class="st3" d="M168.9,156.6c5.4,0,9.7-4.4,9.7-9.7c0-5.4-4.4-9.7-9.7-9.7c-5.4,0-9.7,4.4-9.7,9.7
	C159.1,152.2,163.5,156.6,168.9,156.6z"/>
<path class="st4" d="M105.3,162.1"/>
<path class="st5" d="M105.3,162.1"/>
<line class="st1" x1="28.3" y1="184.7" x2="226.7" y2="184.7"/>
<line class="st1" x1="61.3" y1="144.7" x2="61.3" y2="184.1"/>
<line class="st1" x1="68.1" y1="184.1" x2="68.1" y2="151.8"/>
<line class="st1" x1="67.9" y1="152" x2="130.9" y2="134.3"/>
<polyline class="st1" points="130.4,134.7 130.4,103.9 189.3,130 "/>
<line class="st1" x1="189.5" y1="129.7" x2="189.5" y2="184.7"/>
<line class="st1" x1="196.5" y1="184.1" x2="196.5" y2="125.5"/>
<line class="st1" x1="122.8" y1="93.1" x2="196.9" y2="126.1"/>
<line class="st6" x1="68.1" y1="184.2" x2="61.7" y2="178.8"/>
<line class="st6" x1="61.4" y1="178.7" x2="68.1" y2="173.1"/>
<line class="st6" x1="68.1" y1="173.4" x2="61.8" y2="167.8"/>
<line class="st6" x1="61.3" y1="168" x2="68.3" y2="161.7"/>
<line class="st6" x1="68.1" y1="162.5" x2="61.2" y2="156.2"/>
<line class="st6" x1="61.8" y1="157.1" x2="68.2" y2="151.9"/>
<line class="st6" x1="68.1" y1="151.9" x2="61.1" y2="146.5"/>
<line class="st6" x1="68.2" y1="152.1" x2="71.6" y2="143.7"/>
<line class="st6" x1="71.6" y1="143.9" x2="78.2" y2="148.7"/>
<line class="st6" x1="78" y1="148.9" x2="82.2" y2="140.2"/>
<line class="st6" x1="81.7" y1="140.9" x2="88.7" y2="145.9"/>
<line class="st6" x1="88.6" y1="145.9" x2="92.9" y2="137.2"/>
<line class="st6" x1="92" y1="138" x2="99.4" y2="142.9"/>
<line class="st6" x1="99.5" y1="142.9" x2="103" y2="134.7"/>
<line class="st6" x1="102.3" y1="135.1" x2="109.6" y2="140.1"/>
<line class="st6" x1="109.6" y1="139.8" x2="112.8" y2="132.4"/>
<line class="st6" x1="112.7" y1="132.3" x2="119.8" y2="137"/>
<line class="st6" x1="120.1" y1="137" x2="123.2" y2="129.8"/>
<line class="st6" x1="123.1" y1="129.2" x2="130.1" y2="134.2"/>
<line class="st6" x1="123.6" y1="129.3" x2="130.4" y2="123.7"/>
<line class="st6" x1="123" y1="118.7" x2="129.7" y2="123.8"/>
<line class="st6" x1="123.4" y1="108" x2="130" y2="113.1"/>
<line class="st6" x1="123.2" y1="119.2" x2="130" y2="113.4"/>
<line class="st6" x1="123.5" y1="108" x2="130.2" y2="104.1"/>
<line class="st6" x1="130.7" y1="104.1" x2="123.9" y2="93.8"/>
<line class="st6" x1="130.6" y1="103.9" x2="138.3" y2="99.9"/>
<line class="st6" x1="138.2" y1="100" x2="140" y2="107.6"/>
<line class="st6" x1="140.1" y1="107.9" x2="147.9" y2="104.3"/>
<line class="st6" x1="147.8" y1="103.9" x2="149.7" y2="112.4"/>
<line class="st6" x1="149.7" y1="112.1" x2="158" y2="108.5"/>
<line class="st6" x1="158" y1="109.1" x2="160" y2="116.6"/>
<line class="st6" x1="160" y1="116.5" x2="167.9" y2="113"/>
<line class="st6" x1="167.8" y1="113.5" x2="169.7" y2="121.1"/>
<line class="st6" x1="169.7" y1="121.1" x2="178" y2="117.6"/>
<line class="st6" x1="177.5" y1="117.9" x2="179.6" y2="125.1"/>
<line class="st6" x1="179.7" y1="125.6" x2="187.6" y2="121.9"/>
<line class="st6" x1="187.4" y1="122.1" x2="189.5" y2="129.6"/>
<line class="st6" x1="189.5" y1="130" x2="196.5" y2="125.6"/>
<line class="st6" x1="189.7" y1="130.4" x2="196.7" y2="136.2"/>
<line class="st6" x1="189.7" y1="141.1" x2="196.9" y2="146.5"/>
<line class="st6" x1="189.5" y1="151.8" x2="196.7" y2="158"/>
<line class="st6" x1="189.5" y1="162.6" x2="196.7" y2="168"/>
<line class="st6" x1="189.8" y1="173.4" x2="196.7" y2="178.8"/>
<line class="st6" x1="189.9" y1="183.5" x2="196.7" y2="178.5"/>
<line class="st6" x1="189.6" y1="173.1" x2="196.8" y2="167.4"/>
<line class="st6" x1="189.7" y1="162.8" x2="196.7" y2="157"/>
<line class="st6" x1="189.7" y1="151.8" x2="196.9" y2="145.9"/>
<line class="st6" x1="190" y1="141.1" x2="196.5" y2="135.2"/>
</svg>
