<?xml version="1.0" encoding="utf-8"?>
<!-- Generator: Adobe Illustrator 22.0.0, SVG Export Plug-In . SVG Version: 6.00 Build 0)  -->
<svg version="1.1" id="Layer_1" xmlns="http://www.w3.org/2000/svg" xmlns:xlink="http://www.w3.org/1999/xlink" x="0px" y="0px"
	 viewBox="0 0 250 250" style="enable-background:new 0 0 250 250;" xml:space="preserve">
<style type="text/css">
	.st0{fill:#231F20;}
	.st1{fill:none;stroke:#231F20;stroke-width:3.68;}
	.st2{fill:#FFFFFF;}
	.st3{fill:none;stroke:#793236;stroke-width:0.688;}
</style>
<rect x="171.5" y="114.9" class="st0" width="15.9" height="22.8"/>
<rect x="171.5" y="114.9" class="st1" width="15.9" height="22.8"/>
<path class="st1" d="M187.4,137.7"/>
<rect x="128.7" y="91" class="st0" width="45.1" height="12.6"/>
<rect x="128.7" y="91" class="st1" width="45.1" height="12.6"/>
<path class="st1" d="M173.8,103.6"/>
<rect x="98.1" y="70.4" class="st0" width="45.1" height="12.6"/>
<rect x="98.1" y="70.4" class="st1" width="45.1" height="12.6"/>
<path class="st1" d="M143.2,83"/>
<rect x="83.5" y="59.6" class="st0" width="9.4" height="7.8"/>
<rect x="83.5" y="59.6" class="st1" width="9.4" height="7.8"/>
<path class="st1" d="M92.9,67.3"/>
<rect x="59.5" y="67.4" class="st0" width="15.9" height="36.2"/>
<rect x="59.5" y="67.4" class="st1" width="15.9" height="36.2"/>
<path class="st1" d="M75.3,103.6"/>
<rect x="52.4" y="111" class="st0" width="9.4" height="18.1"/>
<rect x="52.4" y="111" class="st1" width="9.4" height="18.1"/>
<path class="st1" d="M61.8,129"/>
<rect x="73.4" y="114.9" class="st2" width="86.4" height="81.3"/>
<line class="st3" x1="158.2" y1="195.9" x2="161.3" y2="195.9"/>
<line class="st3" x1="158.2" y1="194.3" x2="161.3" y2="194.3"/>
<line class="st3" x1="158.2" y1="192.8" x2="161.3" y2="192.8"/>
<line class="st3" x1="158.2" y1="191.3" x2="161.3" y2="191.3"/>
<line class="st3" x1="158.2" y1="189.7" x2="161.3" y2="189.7"/>
<line class="st3" x1="158.2" y1="188.2" x2="161.3" y2="188.2"/>
<line class="st3" x1="158.2" y1="186.7" x2="161.3" y2="186.7"/>
<line class="st3" x1="158.2" y1="185.2" x2="161.3" y2="185.2"/>
<line class="st3" x1="158.2" y1="183.6" x2="161.3" y2="183.6"/>
<line class="st3" x1="158.2" y1="182.1" x2="161.3" y2="182.1"/>
<line class="st3" x1="158.2" y1="180.6" x2="161.3" y2="180.6"/>
<line class="st3" x1="158.2" y1="179" x2="161.3" y2="179"/>
<line class="st3" x1="158.2" y1="177.5" x2="161.3" y2="177.5"/>
<line class="st3" x1="158.2" y1="176" x2="161.3" y2="176"/>
<line class="st3" x1="158.2" y1="174.5" x2="161.3" y2="174.5"/>
<line class="st3" x1="158.2" y1="172.9" x2="161.3" y2="172.9"/>
<line class="st3" x1="158.2" y1="171.4" x2="161.3" y2="171.4"/>
<line class="st3" x1="158.2" y1="169.9" x2="161.3" y2="169.9"/>
<line class="st3" x1="158.2" y1="168.3" x2="161.3" y2="168.3"/>
<line class="st3" x1="158.2" y1="166.8" x2="161.3" y2="166.8"/>
<line class="st3" x1="158.2" y1="165.3" x2="161.3" y2="165.3"/>
<line class="st3" x1="158.2" y1="163.8" x2="161.3" y2="163.8"/>
<line class="st3" x1="158.2" y1="162.2" x2="161.3" y2="162.2"/>
<line class="st3" x1="158.2" y1="160.7" x2="161.3" y2="160.7"/>
<line class="st3" x1="158.2" y1="159.2" x2="161.3" y2="159.2"/>
<line class="st3" x1="158.2" y1="157.7" x2="161.3" y2="157.7"/>
<line class="st3" x1="158.2" y1="156.1" x2="161.3" y2="156.1"/>
<line class="st3" x1="158.2" y1="154.6" x2="161.3" y2="154.6"/>
<line class="st3" x1="158.2" y1="153.1" x2="161.3" y2="153.1"/>
<line class="st3" x1="158.2" y1="151.5" x2="161.3" y2="151.5"/>
<line class="st3" x1="158.2" y1="150" x2="161.3" y2="150"/>
<line class="st3" x1="158.2" y1="148.5" x2="161.3" y2="148.5"/>
<line class="st3" x1="158.2" y1="147" x2="161.3" y2="147"/>
<line class="st3" x1="158.2" y1="145.4" x2="161.3" y2="145.4"/>
<line class="st3" x1="158.2" y1="143.9" x2="161.3" y2="143.9"/>
<line class="st3" x1="158.2" y1="142.4" x2="161.3" y2="142.4"/>
<line class="st3" x1="158.2" y1="140.8" x2="161.3" y2="140.8"/>
<line class="st3" x1="158.2" y1="139.3" x2="161.3" y2="139.3"/>
<line class="st3" x1="158.2" y1="137.8" x2="161.3" y2="137.8"/>
<line class="st3" x1="158.2" y1="136.3" x2="161.3" y2="136.3"/>
<line class="st3" x1="158.2" y1="134.7" x2="161.3" y2="134.7"/>
<line class="st3" x1="158.2" y1="133.2" x2="161.3" y2="133.2"/>
<line class="st3" x1="158.2" y1="131.7" x2="161.3" y2="131.7"/>
<line class="st3" x1="158.2" y1="130.1" x2="161.3" y2="130.1"/>
<line class="st3" x1="158.2" y1="128.6" x2="161.3" y2="128.6"/>
<line class="st3" x1="158.2" y1="127.1" x2="161.3" y2="127.1"/>
<line class="st3" x1="158.2" y1="125.6" x2="161.3" y2="125.6"/>
<line class="st3" x1="158.2" y1="124" x2="161.3" y2="124"/>
<line class="st3" x1="158.2" y1="122.5" x2="161.3" y2="122.5"/>
<line class="st3" x1="158.2" y1="121" x2="161.3" y2="121"/>
<line class="st3" x1="158.2" y1="119.4" x2="161.3" y2="119.4"/>
<line class="st3" x1="158.2" y1="117.9" x2="161.3" y2="117.9"/>
<line class="st3" x1="158.2" y1="116.4" x2="161.3" y2="116.4"/>
<line class="st3" x1="159.8" y1="116.4" x2="159.8" y2="113.3"/>
<line class="st3" x1="158.2" y1="116.4" x2="158.2" y2="113.3"/>
<line class="st3" x1="156.7" y1="116.4" x2="156.7" y2="113.3"/>
<line class="st3" x1="155.2" y1="116.4" x2="155.2" y2="113.3"/>
<line class="st3" x1="153.6" y1="116.4" x2="153.6" y2="113.3"/>
<line class="st3" x1="152.1" y1="116.4" x2="152.1" y2="113.3"/>
<line class="st3" x1="150.6" y1="116.4" x2="150.6" y2="113.3"/>
<line class="st3" x1="149.1" y1="116.4" x2="149.1" y2="113.3"/>
<line class="st3" x1="147.5" y1="116.4" x2="147.5" y2="113.3"/>
<line class="st3" x1="146" y1="116.4" x2="146" y2="113.3"/>
<line class="st3" x1="144.5" y1="116.4" x2="144.5" y2="113.3"/>
<line class="st3" x1="142.9" y1="116.4" x2="142.9" y2="113.3"/>
<line class="st3" x1="141.4" y1="116.4" x2="141.4" y2="113.3"/>
<line class="st3" x1="139.9" y1="116.4" x2="139.9" y2="113.3"/>
<line class="st3" x1="138.4" y1="116.4" x2="138.4" y2="113.3"/>
<line class="st3" x1="136.8" y1="116.4" x2="136.8" y2="113.3"/>
<line class="st3" x1="135.3" y1="116.4" x2="135.3" y2="113.3"/>
<line class="st3" x1="133.8" y1="116.4" x2="133.8" y2="113.3"/>
<line class="st3" x1="132.3" y1="116.4" x2="132.3" y2="113.3"/>
<line class="st3" x1="130.7" y1="116.4" x2="130.7" y2="113.3"/>
<line class="st3" x1="129.2" y1="116.4" x2="129.2" y2="113.3"/>
<line class="st3" x1="127.7" y1="116.4" x2="127.7" y2="113.3"/>
<line class="st3" x1="126.1" y1="116.4" x2="126.1" y2="113.3"/>
<line class="st3" x1="124.6" y1="116.4" x2="124.6" y2="113.3"/>
<line class="st3" x1="123.1" y1="116.4" x2="123.1" y2="113.3"/>
<line class="st3" x1="121.6" y1="116.4" x2="121.6" y2="113.3"/>
<line class="st3" x1="120" y1="116.4" x2="120" y2="113.3"/>
<line class="st3" x1="118.5" y1="116.4" x2="118.5" y2="113.3"/>
<line class="st3" x1="117" y1="116.4" x2="117" y2="113.3"/>
<line class="st3" x1="115.4" y1="116.4" x2="115.4" y2="113.3"/>
<line class="st3" x1="113.9" y1="116.4" x2="113.9" y2="113.3"/>
<line class="st3" x1="112.4" y1="116.4" x2="112.4" y2="113.3"/>
<line class="st3" x1="110.9" y1="116.4" x2="110.9" y2="113.3"/>
<line class="st3" x1="109.3" y1="116.4" x2="109.3" y2="113.3"/>
<line class="st3" x1="107.8" y1="116.4" x2="107.8" y2="113.3"/>
<line class="st3" x1="106.3" y1="116.4" x2="106.3" y2="113.3"/>
<line class="st3" x1="104.7" y1="116.4" x2="104.7" y2="113.3"/>
<line class="st3" x1="103.2" y1="116.4" x2="103.2" y2="113.3"/>
<line class="st3" x1="101.7" y1="116.4" x2="101.7" y2="113.3"/>
<line class="st3" x1="100.2" y1="116.4" x2="100.2" y2="113.3"/>
<line class="st3" x1="98.6" y1="116.4" x2="98.6" y2="113.3"/>
<line class="st3" x1="97.1" y1="116.4" x2="97.1" y2="113.3"/>
<line class="st3" x1="95.6" y1="116.4" x2="95.6" y2="113.3"/>
<line class="st3" x1="94" y1="116.4" x2="94" y2="113.3"/>
<line class="st3" x1="92.5" y1="116.4" x2="92.5" y2="113.3"/>
<line class="st3" x1="91" y1="116.4" x2="91" y2="113.3"/>
<line class="st3" x1="89.5" y1="116.4" x2="89.5" y2="113.3"/>
<line class="st3" x1="87.9" y1="116.4" x2="87.9" y2="113.3"/>
<line class="st3" x1="86.4" y1="116.4" x2="86.4" y2="113.3"/>
<line class="st3" x1="84.9" y1="116.4" x2="84.9" y2="113.3"/>
<line class="st3" x1="83.4" y1="116.4" x2="83.4" y2="113.3"/>
<line class="st3" x1="81.8" y1="116.4" x2="81.8" y2="113.3"/>
<line class="st3" x1="80.3" y1="116.4" x2="80.3" y2="113.3"/>
<line class="st3" x1="78.8" y1="116.4" x2="78.8" y2="113.3"/>
<line class="st3" x1="77.2" y1="116.4" x2="77.2" y2="113.3"/>
<line class="st3" x1="75.7" y1="116.4" x2="75.7" y2="113.3"/>
<line class="st3" x1="74.2" y1="116.4" x2="74.2" y2="113.3"/>
<line class="st3" x1="74.9" y1="115.6" x2="71.9" y2="115.6"/>
<line class="st3" x1="74.9" y1="117.2" x2="71.9" y2="117.2"/>
<line class="st3" x1="74.9" y1="118.7" x2="71.9" y2="118.7"/>
<line class="st3" x1="74.9" y1="120.2" x2="71.9" y2="120.2"/>
<line class="st3" x1="74.9" y1="121.8" x2="71.9" y2="121.8"/>
<line class="st3" x1="74.9" y1="123.3" x2="71.9" y2="123.3"/>
<line class="st3" x1="74.9" y1="124.8" x2="71.9" y2="124.8"/>
<line class="st3" x1="74.9" y1="126.3" x2="71.9" y2="126.3"/>
<line class="st3" x1="74.9" y1="127.9" x2="71.9" y2="127.9"/>
<line class="st3" x1="74.9" y1="129.4" x2="71.9" y2="129.4"/>
<line class="st3" x1="74.9" y1="130.9" x2="71.9" y2="130.9"/>
<line class="st3" x1="74.9" y1="132.4" x2="71.9" y2="132.4"/>
<line class="st3" x1="74.9" y1="134" x2="71.9" y2="134"/>
<line class="st3" x1="74.9" y1="135.5" x2="71.9" y2="135.5"/>
<line class="st3" x1="74.9" y1="137" x2="71.9" y2="137"/>
<line class="st3" x1="74.9" y1="138.6" x2="71.9" y2="138.6"/>
<line class="st3" x1="74.9" y1="140.1" x2="71.9" y2="140.1"/>
<line class="st3" x1="74.9" y1="141.6" x2="71.9" y2="141.6"/>
<line class="st3" x1="74.9" y1="143.1" x2="71.9" y2="143.1"/>
<line class="st3" x1="74.9" y1="144.7" x2="71.9" y2="144.7"/>
<line class="st3" x1="74.9" y1="146.2" x2="71.9" y2="146.2"/>
<line class="st3" x1="74.9" y1="147.7" x2="71.9" y2="147.7"/>
<line class="st3" x1="74.9" y1="149.3" x2="71.9" y2="149.3"/>
<line class="st3" x1="74.9" y1="150.8" x2="71.9" y2="150.8"/>
<line class="st3" x1="74.9" y1="152.3" x2="71.9" y2="152.3"/>
<line class="st3" x1="74.9" y1="153.8" x2="71.9" y2="153.8"/>
<line class="st3" x1="74.9" y1="155.4" x2="71.9" y2="155.4"/>
<line class="st3" x1="74.9" y1="156.9" x2="71.9" y2="156.9"/>
<line class="st3" x1="74.9" y1="158.4" x2="71.9" y2="158.4"/>
<line class="st3" x1="74.9" y1="160" x2="71.9" y2="160"/>
<line class="st3" x1="74.9" y1="161.5" x2="71.9" y2="161.5"/>
<line class="st3" x1="74.9" y1="163" x2="71.9" y2="163"/>
<line class="st3" x1="74.9" y1="164.5" x2="71.9" y2="164.5"/>
<line class="st3" x1="74.9" y1="166.1" x2="71.9" y2="166.1"/>
<line class="st3" x1="74.9" y1="167.6" x2="71.9" y2="167.6"/>
<line class="st3" x1="74.9" y1="169.1" x2="71.9" y2="169.1"/>
<line class="st3" x1="74.9" y1="170.7" x2="71.9" y2="170.7"/>
<line class="st3" x1="74.9" y1="172.2" x2="71.9" y2="172.2"/>
<line class="st3" x1="74.9" y1="173.7" x2="71.9" y2="173.7"/>
<line class="st3" x1="74.9" y1="175.2" x2="71.9" y2="175.2"/>
<line class="st3" x1="74.9" y1="176.8" x2="71.9" y2="176.8"/>
<line class="st3" x1="74.9" y1="178.3" x2="71.9" y2="178.3"/>
<line class="st3" x1="74.9" y1="179.8" x2="71.9" y2="179.8"/>
<line class="st3" x1="74.9" y1="181.3" x2="71.9" y2="181.3"/>
<line class="st3" x1="74.9" y1="182.9" x2="71.9" y2="182.9"/>
<line class="st3" x1="74.9" y1="184.4" x2="71.9" y2="184.4"/>
<line class="st3" x1="74.9" y1="185.9" x2="71.9" y2="185.9"/>
<line class="st3" x1="74.9" y1="187.5" x2="71.9" y2="187.5"/>
<line class="st3" x1="74.9" y1="189" x2="71.9" y2="189"/>
<line class="st3" x1="74.9" y1="190.5" x2="71.9" y2="190.5"/>
<line class="st3" x1="74.9" y1="192" x2="71.9" y2="192"/>
<line class="st3" x1="74.9" y1="193.6" x2="71.9" y2="193.6"/>
<line class="st3" x1="74.9" y1="195.1" x2="71.9" y2="195.1"/>
<line class="st3" x1="73.9" y1="194.6" x2="73.9" y2="197.7"/>
<line class="st3" x1="75.4" y1="194.6" x2="75.4" y2="197.7"/>
<line class="st3" x1="77" y1="194.6" x2="77" y2="197.7"/>
<line class="st3" x1="78.5" y1="194.6" x2="78.5" y2="197.7"/>
<line class="st3" x1="80" y1="194.6" x2="80" y2="197.7"/>
<line class="st3" x1="81.5" y1="194.6" x2="81.5" y2="197.7"/>
<line class="st3" x1="83.1" y1="194.6" x2="83.1" y2="197.7"/>
<line class="st3" x1="84.6" y1="194.6" x2="84.6" y2="197.7"/>
<line class="st3" x1="86.1" y1="194.6" x2="86.1" y2="197.7"/>
<line class="st3" x1="87.7" y1="194.6" x2="87.7" y2="197.7"/>
<line class="st3" x1="89.2" y1="194.6" x2="89.2" y2="197.7"/>
<line class="st3" x1="90.7" y1="194.6" x2="90.7" y2="197.7"/>
<line class="st3" x1="92.2" y1="194.6" x2="92.2" y2="197.7"/>
<line class="st3" x1="93.8" y1="194.6" x2="93.8" y2="197.7"/>
<line class="st3" x1="95.3" y1="194.6" x2="95.3" y2="197.7"/>
<line class="st3" x1="96.8" y1="194.6" x2="96.8" y2="197.7"/>
<line class="st3" x1="98.4" y1="194.6" x2="98.4" y2="197.7"/>
<line class="st3" x1="99.9" y1="194.6" x2="99.9" y2="197.7"/>
<line class="st3" x1="101.4" y1="194.6" x2="101.4" y2="197.7"/>
<line class="st3" x1="102.9" y1="194.6" x2="102.9" y2="197.7"/>
<line class="st3" x1="104.5" y1="194.6" x2="104.5" y2="197.7"/>
<line class="st3" x1="106" y1="194.6" x2="106" y2="197.7"/>
<line class="st3" x1="107.5" y1="194.6" x2="107.5" y2="197.7"/>
<line class="st3" x1="109.1" y1="194.6" x2="109.1" y2="197.7"/>
<line class="st3" x1="110.6" y1="194.6" x2="110.6" y2="197.7"/>
<line class="st3" x1="112.1" y1="194.6" x2="112.1" y2="197.7"/>
<line class="st3" x1="113.6" y1="194.6" x2="113.6" y2="197.7"/>
<line class="st3" x1="115.2" y1="194.6" x2="115.2" y2="197.7"/>
<line class="st3" x1="116.7" y1="194.6" x2="116.7" y2="197.7"/>
<line class="st3" x1="118.2" y1="194.6" x2="118.2" y2="197.7"/>
<line class="st3" x1="119.8" y1="194.6" x2="119.8" y2="197.7"/>
<line class="st3" x1="121.3" y1="194.6" x2="121.3" y2="197.7"/>
<line class="st3" x1="122.8" y1="194.6" x2="122.8" y2="197.7"/>
<line class="st3" x1="124.3" y1="194.6" x2="124.3" y2="197.7"/>
<line class="st3" x1="125.9" y1="194.6" x2="125.9" y2="197.7"/>
<line class="st3" x1="127.4" y1="194.6" x2="127.4" y2="197.7"/>
<line class="st3" x1="128.9" y1="194.6" x2="128.9" y2="197.7"/>
<line class="st3" x1="130.4" y1="194.6" x2="130.4" y2="197.7"/>
<line class="st3" x1="132" y1="194.6" x2="132" y2="197.7"/>
<line class="st3" x1="133.5" y1="194.6" x2="133.5" y2="197.7"/>
<line class="st3" x1="135" y1="194.6" x2="135" y2="197.7"/>
<line class="st3" x1="136.6" y1="194.6" x2="136.6" y2="197.7"/>
<line class="st3" x1="138.1" y1="194.6" x2="138.1" y2="197.7"/>
<line class="st3" x1="139.6" y1="194.6" x2="139.6" y2="197.7"/>
<line class="st3" x1="141.1" y1="194.6" x2="141.1" y2="197.7"/>
<line class="st3" x1="142.7" y1="194.6" x2="142.7" y2="197.7"/>
<line class="st3" x1="144.2" y1="194.6" x2="144.2" y2="197.7"/>
<line class="st3" x1="145.7" y1="194.6" x2="145.7" y2="197.7"/>
<line class="st3" x1="147.3" y1="194.6" x2="147.3" y2="197.7"/>
<line class="st3" x1="148.8" y1="194.6" x2="148.8" y2="197.7"/>
<line class="st3" x1="150.3" y1="194.6" x2="150.3" y2="197.7"/>
<line class="st3" x1="151.8" y1="194.6" x2="151.8" y2="197.7"/>
<line class="st3" x1="153.4" y1="194.6" x2="153.4" y2="197.7"/>
<line class="st3" x1="154.9" y1="194.6" x2="154.9" y2="197.7"/>
<line class="st3" x1="156.4" y1="194.6" x2="156.4" y2="197.7"/>
<line class="st3" x1="158" y1="194.6" x2="158" y2="197.7"/>
<line class="st3" x1="159.5" y1="194.6" x2="159.5" y2="197.7"/>
<rect x="196.4" y="138" class="st0" width="9.4" height="12.6"/>
<rect x="196.4" y="138" class="st1" width="9.4" height="12.6"/>
<path class="st1" d="M205.8,150.7"/>
</svg>
